<svg width="12" height="12" viewBox="0 0 12 12" fill="none" xmlns="http://www.w3.org/2000/svg">
<path d="M4.90061 6.01071L0.228046 1.33801C-0.0760365 1.03407 -0.0760365 0.542637 0.228046 0.238697C0.531986 -0.0652428 1.02342 -0.0652428 1.32736 0.238697L6.00006 4.9114L10.6726 0.238697C10.9767 -0.0652428 11.468 -0.0652428 11.7719 0.238697C12.076 0.542637 12.076 1.03407 11.7719 1.33801L7.09937 6.01071L11.7719 10.6834C12.076 10.9874 12.076 11.4788 11.7719 11.7827C11.6205 11.9343 11.4213 12.0105 11.2223 12.0105C11.0233 12.0105 10.8242 11.9343 10.6726 11.7827L6.00006 7.11002L1.32736 11.7827C1.17574 11.9343 0.976722 12.0105 0.777701 12.0105C0.578681 12.0105 0.379661 11.9343 0.228046 11.7827C-0.0760365 11.4788 -0.0760365 10.9874 0.228046 10.6834L4.90061 6.01071Z" fill="#78809D"/>
</svg>
