<svg width="12" height="13" viewBox="0 0 12 13" fill="none" xmlns="http://www.w3.org/2000/svg">
<path d="M5.09909 11.6226C5.09909 11.8779 4.89222 12.0848 4.63697 12.0848H2.60362C1.58433 12.0848 0.755127 11.2556 0.755127 10.2363V2.10289C0.755127 1.0836 1.58433 0.254395 2.60362 0.254395H8.28522C9.30442 0.254395 10.1337 1.0836 10.1337 2.10289V6.51617C10.1337 6.77142 9.92675 6.9783 9.67159 6.9783C9.41634 6.9783 9.20947 6.77142 9.20947 6.51617V2.10289C9.20947 1.59329 8.79482 1.17864 8.28522 1.17864H2.60362C2.09402 1.17864 1.67937 1.59329 1.67937 2.10289V10.2363C1.67937 10.7459 2.09402 11.1605 2.60362 11.1605H4.63697C4.89222 11.1605 5.09909 11.3674 5.09909 11.6226ZM7.82309 3.02714H3.06322C2.80797 3.02714 2.60109 3.23401 2.60109 3.48926C2.60109 3.74451 2.80797 3.95139 3.06322 3.95139H7.82309C8.07825 3.95139 8.28522 3.74451 8.28522 3.48926C8.28522 3.23401 8.07825 3.02714 7.82309 3.02714ZM8.28522 5.33776C8.28522 5.08251 8.07825 4.87563 7.82309 4.87563H3.06322C2.80797 4.87563 2.60109 5.08251 2.60109 5.33776C2.60109 5.59301 2.80797 5.79988 3.06322 5.79988H7.82309C8.07825 5.79988 8.28522 5.59301 8.28522 5.33776ZM3.06322 6.72413C2.80797 6.72413 2.60109 6.931 2.60109 7.18625C2.60109 7.4415 2.80797 7.64838 3.06322 7.64838H5.4919C5.74715 7.64838 5.95402 7.4415 5.95402 7.18625C5.95402 6.931 5.74715 6.72413 5.4919 6.72413H3.06322ZM11.2768 10.1091C11.2606 10.1323 11.2049 10.2111 11.1703 10.2547C11.0155 10.4494 10.6532 10.9051 10.1491 11.3074C9.50281 11.8232 8.83769 12.0848 8.17221 12.0848C7.50674 12.0848 6.84162 11.8232 6.19528 11.3074C5.69119 10.9051 5.32889 10.4493 5.17419 10.2547C5.13953 10.2111 5.08384 10.1322 5.06759 10.1091C4.95558 9.9497 4.95558 9.73714 5.06759 9.57774C5.08384 9.55464 5.13953 9.47575 5.17419 9.43216C5.32889 9.23756 5.69119 8.78184 6.19528 8.37956C6.84162 7.86373 7.50674 7.60216 8.17221 7.60216C8.83769 7.60216 9.50281 7.86373 10.1491 8.37956C10.6532 8.78184 11.0155 9.23765 11.1702 9.43225C11.2049 9.47584 11.2606 9.55473 11.2768 9.57783C11.3888 9.73723 11.3888 9.9497 11.2768 10.1091ZM10.3129 9.84346C9.57808 8.96931 8.85863 8.52641 8.17221 8.52641C7.48589 8.52641 6.76635 8.96922 6.03155 9.84346C6.76635 10.7176 7.4858 11.1605 8.17221 11.1605C8.85863 11.1605 9.57808 10.7177 10.3129 9.84346ZM8.19532 8.96543C7.71036 8.96543 7.31728 9.3585 7.31728 9.84346C7.31728 10.3284 7.71036 10.7215 8.19532 10.7215C8.68028 10.7215 9.07335 10.3284 9.07335 9.84346C9.07335 9.3585 8.68028 8.96543 8.19532 8.96543Z" fill="#507FF9"/>
</svg>
