<svg width="13" height="10" viewBox="0 0 13 10" fill="none" xmlns="http://www.w3.org/2000/svg">
<path d="M11.5613 0.254395H1.11405C0.50053 0.254395 0 0.754379 0 1.36844V8.79543C0 9.40742 0.498301 9.90948 1.11405 9.90948H11.5613C12.1733 9.90948 12.6754 9.41118 12.6754 8.79543V1.36844C12.6754 0.756459 12.1771 0.254395 11.5613 0.254395ZM11.4075 0.997093L6.36132 6.04331L1.27148 0.997093H11.4075ZM0.742699 8.64164V1.51869L4.31951 5.06483L0.742699 8.64164ZM1.26786 9.16678L4.84693 5.58772L6.10102 6.83104C6.2462 6.97498 6.48047 6.97451 6.62505 6.8299L7.84785 5.6071L11.4075 9.16678H1.26786ZM11.9327 8.64162L8.37301 5.08194L11.9327 1.52223V8.64162Z" fill="#507FF9"/>
</svg>
